# File created by Blade
# Date/Time:  Thu Sep 25 19:26:26 2014
# Frame Rate: 120.000 fps
#------------------------------------------------------
:FULLY-SPECIFIED
:DEGREES
682
root 0.401333 31.826195 -12.078708 114.614935 11.005869 7.375548
Spine 42.565265 2.388338 18.047842
Head 11.160536 -21.240046 3.476137
LeftShoulder 7.546462 -27.672752 44.734589
LeftArm 28.240537 -41.329811 -24.837621
LeftForeArm 63.960026 -0.000000 78.175691
LeftHand -40.879390 -0.000000 42.616699
LeftHandThumb1 -26.253704 0.000000 33.147579
RightShoulder 5.787913 65.230923 -42.404115
RightArm 2.547052 18.981265 40.879249
RightForeArm -50.785619 -0.000000 69.705315
RightHand -9.231458 -0.000000 -58.912886
RightHandThumb1 -24.326973 -0.000000 -32.862282
LeftUpLeg -119.623584 2.258211 -7.437963
LeftLeg -1.931198 -0.000000 0.000000
LeftFoot 3.960302 2.624933 -26.150459
LeftToeBase 9.225050 -0.000000 -0.000000
RightUpLeg -120.415443 -17.234190 26.271192
RightLeg 0.093109 -0.000000 -0.000000
RightFoot 3.036301 -14.677762 16.110906
RightToeBase 3.562714 -0.000000 -0.000000
683
root 0.401354 31.825307 -12.096070 114.560129 10.976490 7.366691
Spine 42.529268 2.359527 17.991383
Head 11.458003 -21.239426 3.206539
LeftShoulder 7.594410 -27.580916 44.663341
LeftArm 28.228890 -41.321438 -24.677777
LeftForeArm 63.872813 -0.000000 78.098400
LeftHand -40.826218 -0.000000 42.501371
LeftHandThumb1 -26.253704 0.000000 33.147579
RightShoulder 5.920821 65.176179 -42.289852
RightArm 2.565726 18.943729 40.851277
RightForeArm -50.683150 -0.000000 69.647972
RightHand -9.220041 -0.000000 -58.907128
RightHandThumb1 -24.326973 -0.000000 -32.862282
LeftUpLeg -119.638852 2.251609 -7.466349
LeftLeg -1.840288 -0.000000 0.000000
LeftFoot 3.931001 2.598620 -26.162711
LeftToeBase 9.273322 -0.000000 -0.000000
RightUpLeg -120.434010 -17.224451 26.281896
RightLeg 0.130626 -0.000000 -0.000000
RightFoot 3.054731 -14.607091 16.030524
RightToeBase 3.558179 -0.000000 -0.000000
684
root 0.402351 31.825049 -12.115944 114.535824 10.954669 7.378717
Spine 42.441100 2.326442 17.980899
Head 11.818162 -21.361394 2.870767
LeftShoulder 7.653078 -27.487325 44.586985
LeftArm 28.240153 -41.314326 -24.579902
LeftForeArm 63.777764 0.000000 78.023802
LeftHand -40.809434 -0.000000 42.373977
LeftHandThumb1 -26.253704 0.000000 33.147579
RightShoulder 6.004472 65.099715 -42.239908
RightArm 2.595279 18.902116 40.853414
RightForeArm -50.631896 -0.000000 69.572709
RightHand -9.194586 0.000000 -58.934217
RightHandThumb1 -24.326973 -0.000000 -32.862282
LeftUpLeg -119.685421 2.219204 -7.480800
LeftLeg -1.750604 -0.000000 0.000000
LeftFoot 3.911374 2.596851 -26.149703
LeftToeBase 9.300175 -0.000000 -0.000000
RightUpLeg -120.490375 -17.212431 26.324053
RightLeg 0.162130 -0.000000 -0.000000
RightFoot 3.091480 -14.532557 15.930545
RightToeBase 3.573557 -0.000000 -0.000000
685
root 0.403190 31.824655 -12.136947 114.531850 10.932027 7.401299
Spine 42.316574 2.293303 17.995126
Head 12.163966 -21.442063 2.489386
LeftShoulder 7.726425 -27.404879 44.476983
LeftArm 28.286893 -41.294300 -24.508597
LeftForeArm 63.669375 -0.000000 77.932334
LeftHand -40.716619 0.000000 42.370124
LeftHandThumb1 -26.253704 0.000000 33.147579
RightShoulder 6.057798 65.076077 -42.246852
RightArm 2.567909 18.846646 40.898875
RightForeArm -50.631262 -0.000000 69.517965
RightHand -9.183890 -0.000000 -58.896746
RightHandThumb1 -24.326973 -0.000000 -32.862282
LeftUpLeg -119.741717 2.187879 -7.466066
LeftLeg -1.677732 -0.000000 0.000000
LeftFoot 3.901855 2.626425 -26.108187
LeftToeBase 9.308489 -0.000000 -0.000000
RightUpLeg -120.566848 -17.213984 26.356178
RightLeg 0.201385 -0.000000 -0.000000
RightFoot 3.096141 -14.496379 15.917277
RightToeBase 3.604060 -0.000000 -0.000000
686
root 0.403965 31.824089 -12.155724 114.500144 10.904083 7.419362
Spine 42.246789 2.272931 17.998815
Head 12.432300 -21.500863 2.281004
LeftShoulder 7.800064 -27.412631 44.423147
LeftArm 28.261133 -41.228289 -24.443859
LeftForeArm 63.589126 0.000000 77.861952
LeftHand -40.693588 -0.000000 42.353140
LeftHandThumb1 -26.253704 0.000000 33.147579
RightShoulder 6.181153 64.923409 -42.115576
RightArm 2.666891 18.721119 40.770734
RightForeArm -50.456931 -0.000000 69.451748
RightHand -9.337748 -0.000000 -59.045413
RightHandThumb1 -24.326973 -0.000000 -32.862282
LeftUpLeg -119.759599 2.157574 -7.467332
LeftLeg -1.619170 -0.000000 0.000000
LeftFoot 3.891348 2.649777 -26.080865
LeftToeBase 9.342120 -0.000000 -0.000000
RightUpLeg -120.601812 -17.236945 26.358139
RightLeg 0.222497 -0.000000 -0.000000
RightFoot 3.136405 -14.464056 15.842806
RightToeBase 3.581555 -0.000000 -0.000000
687
root 0.403515 31.823054 -12.173626 114.411858 10.881161 7.417661
Spine 42.279055 2.236967 17.979657
Head 12.556058 -21.485764 2.136813
LeftShoulder 7.827160 -27.506922 44.432355
LeftArm 28.116882 -41.106308 -24.336468
LeftForeArm 63.524703 -0.000000 77.784420
LeftHand -40.624538 -0.000000 42.362016
LeftHandThumb1 -26.253704 0.000000 33.147579
RightShoulder 6.317310 64.417579 -41.938788
RightArm 3.001152 18.779186 40.560093
RightForeArm -50.187711 0.000000 69.465356
RightHand -9.569258 -0.000000 -58.957546
RightHandThumb1 -24.326973 -0.000000 -32.862282
LeftUpLeg -119.719464 2.166400 -7.457023
LeftLeg -1.577571 -0.000000 0.000000
LeftFoot 3.872862 2.690924 -26.053275
LeftToeBase 9.298006 -0.000000 -0.000000
RightUpLeg -120.573194 -17.263992 26.335545
RightLeg 0.241977 -0.000000 -0.000000
RightFoot 3.153529 -14.447671 15.812577
RightToeBase 3.592908 -0.000000 -0.000000
